<svg width="35" height="42" viewBox="0 0 35 42" fill="none" xmlns="http://www.w3.org/2000/svg">
<path fill-rule="evenodd" clip-rule="evenodd" d="M7.64557 14.948C6.64231 14.948 5.64888 15.0978 4.722 15.3888C3.79512 15.6799 2.95293 16.1065 2.24352 16.6442C1.53411 17.182 0.971381 17.8204 0.587452 18.5231C0.203524 19.2257 0.00591918 19.9788 0.00591918 20.7393C0.00591918 21.4998 0.203524 22.2529 0.587452 22.9556C0.971381 23.6582 1.53411 24.2966 2.24352 24.8344C2.95293 25.3722 3.79512 25.7988 4.722 26.0898C5.64888 26.3808 6.64231 26.5306 7.64557 26.5306H15.2852V20.8559C15.284 20.7782 15.284 20.7005 15.2852 20.6227V14.948H7.64557ZM15.2852 11.5849H7.64557C5.61901 11.5849 3.67546 10.9746 2.24247 9.88831C0.809484 8.80201 0.00443975 7.32869 0.00443975 5.79244C0.00443975 4.25619 0.809484 2.78286 2.24247 1.69657C3.67546 0.610273 5.61901 0 7.64557 0H15.2852V11.5849ZM19.7217 0V11.5849H27.3614C29.3619 11.555 31.2672 10.9317 32.668 9.84861C34.0689 8.76556 34.8536 7.30925 34.8536 5.79244C34.8536 4.27563 34.0689 2.81931 32.668 1.73627C31.2672 0.653222 29.3619 0.0298376 27.3614 0H19.7217ZM27.3614 14.9458C25.356 14.9456 23.431 15.5431 22.0017 16.6094C20.5725 17.6757 19.7535 19.1252 19.7217 20.6452V20.8312C19.7462 21.9725 20.215 23.0828 21.0692 24.0227C21.9234 24.9626 23.1249 25.6902 24.5228 26.1141C25.9208 26.538 27.4528 26.6394 28.9265 26.4054C30.4001 26.1714 31.7497 25.6126 32.8058 24.799C33.8618 23.9854 34.5772 22.9535 34.862 21.8327C35.1469 20.712 34.9885 19.5524 34.4068 18.4996C33.8251 17.4469 32.846 16.5479 31.5925 15.9156C30.339 15.2833 28.867 14.9459 27.3614 14.9458ZM7.64557 29.8938C6.13388 29.8933 4.65597 30.2327 3.39876 30.8691C2.14155 31.5054 1.16152 32.4101 0.582612 33.4687C0.00370783 34.5273 -0.148064 35.6922 0.146493 36.8162C0.441051 37.9402 1.1687 38.9727 2.23742 39.7832C3.30614 40.5937 4.66792 41.1457 6.15052 41.3694C7.63312 41.5931 9.16995 41.4785 10.5666 41.0401C11.9633 40.6017 13.1571 39.8591 13.997 38.9063C14.8369 37.9535 15.2852 36.8333 15.2852 35.6873V29.8938H7.64557Z" fill="white"/>
</svg>
