<svg width="48" height="42" viewBox="0 0 48 42" fill="none" xmlns="http://www.w3.org/2000/svg">
<path d="M42.6578 0H5.34224C2.40401 0 0 2.07404 0 4.60899V36.8719C0 39.4068 2.40401 41.4809 5.34224 41.4809H42.6578C45.596 41.4809 48 39.4068 48 36.8719V4.60899C48 3.38661 47.4372 2.21429 46.4353 1.34994C45.4334 0.485588 44.0746 0 42.6578 0ZM38.4107 32.2168C38.3306 32.2399 38.2237 32.2629 38.1436 32.2629H32.1068C31.8454 32.2667 31.5887 32.2029 31.3697 32.0797C31.1507 31.9565 30.9795 31.7795 30.8781 31.5716L24.3072 18.3438C24.2538 18.2055 24.0935 18.1364 23.9599 18.1825C23.9173 18.1963 23.8785 18.2179 23.8463 18.2457C23.814 18.2735 23.789 18.307 23.773 18.3438L19.6861 26.7552C19.606 26.9165 19.6861 27.0778 19.8731 27.1469C19.9265 27.17 19.9533 27.17 20.0067 27.17H24.4942C24.7613 27.17 25.0284 27.3082 25.1352 27.5387L27.1119 31.3181C27.2988 31.6637 27.0851 32.0786 26.6845 32.2399C26.5242 32.2399 26.4174 32.2629 26.3105 32.2629H9.96327C9.56261 32.2629 9.21536 31.9633 9.21536 31.6177C9.21536 31.5255 9.24207 31.4563 9.26878 31.3642L19.6861 9.97846C19.8998 9.51756 20.4341 9.21797 20.995 9.21797H27.005C27.5927 9.21797 28.1002 9.51756 28.3139 9.97846L38.7846 31.3642C38.9716 31.6868 38.8114 32.0786 38.4107 32.2168Z" fill="white"/>
</svg>
